<svg width="17" height="17" viewBox="0 0 17 17" fill="none" xmlns="http://www.w3.org/2000/svg">
<path d="M15.1827 6.56347H1.67413C1.03413 6.56347 0.759848 5.86633 1.26271 5.5349L8.01699 1.11204C8.14169 1.03868 8.28374 1 8.42841 1C8.5731 1 8.71515 1.03868 8.83984 1.11204L15.5941 5.5349C16.097 5.86633 15.8227 6.56347 15.1827 6.56347Z" stroke="#C9CACC" stroke-width="1.71429" stroke-linecap="round" stroke-linejoin="round"/>
<path d="M15.2857 12.8491H1.57143C1.25584 12.8491 1 13.1049 1 13.4205V15.1348C1 15.4503 1.25584 15.7062 1.57143 15.7062H15.2857C15.6013 15.7062 15.8571 15.4503 15.8571 15.1348V13.4205C15.8571 13.1049 15.6013 12.8491 15.2857 12.8491Z" stroke="#C9CACC" stroke-width="1.71429" stroke-linecap="round" stroke-linejoin="round"/>
<path d="M2.71429 6.56334V12.8491" stroke="#C9CACC" stroke-width="1.71429" stroke-linecap="round" stroke-linejoin="round"/>
<path d="M6.5238 6.56334V12.8491" stroke="#C9CACC" stroke-width="1.71429" stroke-linecap="round" stroke-linejoin="round"/>
<path d="M10.3334 6.56334V12.8491" stroke="#C9CACC" stroke-width="1.71429" stroke-linecap="round" stroke-linejoin="round"/>
<path d="M14.1429 6.56334V12.8491" stroke="#C9CACC" stroke-width="1.71429" stroke-linecap="round" stroke-linejoin="round"/>
</svg>
