<svg width="250" height="250" viewBox="0 0 250 250" fill="none" xmlns="http://www.w3.org/2000/svg">
<path d="M156.914 82.8462C167.732 87.4037 195.806 95.7937 207.935 89.2375C217.8 83.8937 202.81 75.5837 196.435 73.375C195.592 73.0837 194.971 74.3387 195.823 74.625C199.474 75.875 215.388 82.9237 207.565 87.8837C196.04 95.2387 162.831 84.8537 151.783 78.7325C148.848 77.135 139.533 70.6925 143.193 66.5012C145.766 63.5137 158.692 64.7075 162.251 65.2262C162.876 65.3187 163.06 64.375 162.436 64.2712C157.956 63.555 141.686 61.2525 141.233 68.1925C140.779 75.1325 151.695 80.6487 156.914 82.8462Z" fill="black"/>
<path d="M163.21 70.3975C164.535 68.32 167.36 62.43 168.844 61.61C172.491 59.7416 176.672 59.1884 180.68 60.0437C184.83 60.7587 188.98 62.5025 191.169 64.9925C192.269 66.2575 192.113 67.6475 190.556 68.25C185.609 70.1687 173.419 67.7 170.628 63.7262C169.59 62.2425 167.66 64.5462 173.803 67.5025C177.803 69.4225 188.326 72.1612 192.248 69.0025C192.393 71.9912 192.974 75.0025 192.664 77.9662C191.989 84.6062 168.803 78.5675 164.081 73.7237C163.676 73.2975 162.981 73.9612 163.331 74.4187C167.315 79.605 183.199 83.2675 189.433 82.075C191.643 81.6487 194.164 80.155 194.08 78.1637C193.904 73.9137 194.58 65.7887 191.239 63.1725C188.127 60.7939 184.473 59.2253 180.605 58.6075C177.076 58.0375 169.774 58.3275 167.408 61.2837C165.334 63.9626 163.664 66.9302 162.45 70.0925C162.298 70.5425 162.971 70.77 163.21 70.3975Z" fill="black"/>
<path d="M152.96 90.375C153.02 88.0512 153.614 86.2262 155.771 85.1162C156.646 84.6587 155.959 83.425 155.076 83.7875C150.926 85.51 151.601 89.8262 151.341 91.9837C150.908 95.76 146.103 94.4112 145.615 99.6812C145.542 100.882 145.753 102.083 146.233 103.187C146.713 104.29 147.447 105.265 148.375 106.03C148.779 106.394 149.516 106.03 149.215 105.45C147.929 103.146 145.636 98.9037 149.153 96.7562C151.819 95.125 152.84 95.0462 152.96 90.375Z" fill="black"/>
<path d="M189.011 94.1338C189.067 93.9634 189.057 93.7787 188.984 93.6149C188.912 93.4512 188.781 93.3201 188.618 93.2468C188.455 93.1734 188.27 93.1631 188.099 93.2177C187.929 93.2723 187.784 93.3879 187.694 93.5425C185.573 98.4684 182.594 102.978 178.896 106.863C174.746 110.961 169.083 110.214 166.779 103.824C166.746 103.689 166.661 103.573 166.544 103.5C166.426 103.427 166.284 103.402 166.149 103.432C166.014 103.462 165.895 103.543 165.819 103.659C165.743 103.774 165.715 103.915 165.741 104.051C165.804 107.994 170.078 111.531 174.741 110.774C174.673 113.226 174.978 115.675 175.644 118.036C175.934 118.69 177.107 118.411 176.992 117.715C176.365 115.347 176.07 112.902 176.117 110.453C181.25 108.679 187.144 98.9263 189.011 94.1338Z" fill="black"/>
<path d="M159.226 111.988C162.178 94.8212 165.754 93.5988 163.324 92.4525C161.176 91.4775 160.949 88.8638 161.738 86.8513C161.988 86.2175 160.896 86.0413 160.638 86.6125C159.444 89.2063 159.974 92.6713 162.546 93.8738C160.346 100.306 158.635 105.749 158.054 111.666C158.023 112.341 159.131 112.54 159.226 111.988Z" fill="black"/>
<path d="M204.801 121.75C203.876 117.601 207.695 112.414 200.651 109.156C199.167 108.471 196.791 108.031 196.501 106.044C196.231 103.886 198.001 101.966 198.339 99.8812C198.511 98.8851 198.48 97.8646 198.248 96.8807C198.016 95.8967 197.588 94.9697 196.99 94.155C196.904 94.0551 196.785 93.99 196.655 93.9718C196.524 93.9536 196.392 93.9836 196.282 94.0562C196.172 94.1288 196.093 94.239 196.059 94.3661C196.025 94.4931 196.038 94.6283 196.096 94.7462C198.629 99.84 195.059 102.226 194.956 105.484C194.727 111.169 203.494 108.927 203.41 115.452C203.41 118.171 202.094 121.564 204.002 124.054C206.202 126.929 211.886 128.204 212.094 132.229C212.219 134.469 210.89 136.222 209.604 137.914C209.499 138.075 209.457 138.269 209.483 138.46C209.51 138.65 209.605 138.824 209.75 138.951C209.896 139.077 210.081 139.146 210.274 139.146C210.466 139.147 210.652 139.077 210.797 138.951C213.349 136.544 214.947 132.374 212.872 129.167C210.797 125.961 205.5 124.862 204.801 121.75Z" fill="black"/>
<path d="M183.731 94.0925C183.615 93.055 181.843 93.5425 181.956 95.7525C182.04 97.3812 184 96.4788 183.731 94.0925Z" fill="black"/>
<path d="M169.569 99.0825C169.431 100.175 169.704 101.28 170.335 102.183C170.965 103.086 171.909 103.722 172.983 103.969C173.75 104.031 174.02 103.315 173.523 103.004C172.185 102.129 171.013 101.074 171.291 99.175C171.298 99.0616 171.282 98.948 171.245 98.8407C171.207 98.7335 171.149 98.6347 171.073 98.55C170.998 98.4653 170.906 98.3964 170.803 98.3472C170.701 98.2981 170.59 98.2696 170.476 98.2635C170.363 98.2574 170.25 98.2738 170.142 98.3117C170.035 98.3496 169.937 98.4083 169.852 98.4844C169.768 98.5605 169.7 98.6525 169.651 98.7552C169.602 98.8578 169.574 98.969 169.569 99.0825Z" fill="black"/>
<path d="M175.825 99.725C175.521 101.188 181.459 101.956 180.4 98.6888C180.087 97.6365 179.842 96.5657 179.664 95.4825C179.481 94.5275 177.48 95.185 179.384 99.445C177.319 99.75 176.061 98.5938 175.825 99.725Z" fill="black"/>
<path d="M174.819 91.5512C174.621 90.3575 172.63 91.2087 173.129 93.625C173.388 94.84 175.125 93.4187 174.819 91.5512Z" fill="black"/>
<path d="M233.662 170.78C232.645 171.548 231.369 171.89 230.104 171.734C229.44 171.734 229.354 172.937 229.99 173.109C233.944 174.146 237.315 170.048 235.955 169.125C235.043 168.5 234.956 169.794 233.662 170.78Z" fill="black"/>
<path d="M153.437 174.375C151.562 174.656 146.937 177.28 145.605 179.417C139.141 178.07 131.08 172.249 126.246 167.279C125.851 166.885 125.136 167.486 125.496 167.955C129.646 173.349 138.33 178.973 144.917 180.798C142.895 185.984 144.524 187.531 144.814 186.11C146.755 176.773 150.53 178.576 153.829 175.091C153.881 175.023 153.913 174.94 153.92 174.854C153.926 174.768 153.908 174.682 153.866 174.606C153.825 174.53 153.762 174.468 153.686 174.427C153.61 174.386 153.524 174.368 153.437 174.375Z" fill="black"/>
<path d="M154.703 185.034C158.749 185.365 165.659 179.172 163.002 179.65C160.927 180.025 158.49 183.872 154.786 183.624C153.78 183.423 152.761 183.295 151.736 183.24C150.75 183.301 151.644 184.784 154.703 185.034Z" fill="black"/>
<path d="M232.221 178.041C231.421 177.96 231.07 179.327 228.221 179.184C227.184 179.184 227.184 180.221 228.055 180.511C229.402 180.967 232.464 180.2 232.714 178.925C232.781 178.56 232.635 178.084 232.221 178.041Z" fill="black"/>
<path d="M230.602 169.556C231.522 169.597 232.44 169.447 233.298 169.116C234.157 168.784 234.937 168.278 235.59 167.63C236.243 166.982 236.755 166.205 237.093 165.349C237.43 164.493 237.587 163.576 237.553 162.656C237.553 162.253 236.857 162.263 236.589 162.543C235.831 163.321 236.049 167.439 230.426 168.331C229.7 168.435 229.937 169.526 230.602 169.556Z" fill="black"/>
<path d="M160.969 195.409C158.296 195.82 155.566 195.663 152.958 194.948C150.35 194.233 147.922 192.976 145.832 191.259C141.175 187.555 129.431 189.35 112.095 175.977C105.144 170.614 110.499 164.876 112.832 159.119C112.87 159.006 112.865 158.884 112.821 158.774C112.776 158.664 112.694 158.574 112.589 158.519C112.484 158.464 112.362 158.449 112.247 158.475C112.131 158.501 112.029 158.568 111.957 158.662C106.77 165.872 104.341 172.295 112.465 178.288C128.109 189.844 139.024 188.391 144.159 191.774C148.401 194.595 155.092 198.725 160.986 196.329C161.425 196.198 161.479 195.325 160.969 195.409Z" fill="black"/>
<path d="M232.719 174.515C231.741 175.24 230.543 175.607 229.326 175.552C227.968 175.386 228.201 176.652 229.15 176.952C229.884 177.139 230.654 177.129 231.382 176.923C232.111 176.717 232.772 176.323 233.3 175.78C234.544 174.359 233.528 173.674 232.719 174.515Z" fill="black"/>
<path d="M162.722 190.481C158.304 191.356 157.878 191.891 152.919 190.481C152.306 190.315 151.746 191.196 152.38 191.519C155.191 193.064 160.316 193.394 163.106 191.644C163.243 191.58 163.352 191.468 163.412 191.33C163.472 191.191 163.479 191.035 163.432 190.892C163.384 190.748 163.286 190.627 163.155 190.552C163.024 190.476 162.87 190.451 162.722 190.481Z" fill="black"/>
<path d="M165.326 184.329C164.019 184.541 163.594 186.079 159.326 187.286C157.012 187.949 154.523 187.43 152.201 187.129C152.082 187.136 151.968 187.181 151.876 187.257C151.784 187.334 151.719 187.438 151.691 187.555C151.663 187.671 151.673 187.793 151.72 187.903C151.767 188.014 151.848 188.106 151.951 188.166C160.534 191.613 168.084 183.875 165.326 184.329Z" fill="black"/>
<path d="M130.915 167.398C131.075 167.479 131.258 167.502 131.434 167.465C131.609 167.427 131.766 167.33 131.879 167.19C134.234 163.175 136.444 159.088 138.685 155.011C139.141 154.181 137.917 153.351 137.45 154.181C136.04 156.713 132.16 163.394 131.226 165.718C124.273 162.349 117.823 158.026 112.064 152.875C116.981 145.26 128.529 123.764 136.714 119.2C137.616 118.7 137.004 117.186 136.07 117.7C127.615 122.255 113.911 147.039 111.296 151.77C110.546 153.129 110.546 153.336 111.598 154.425C115.914 158.911 125.931 164.953 130.915 167.398Z" fill="black"/>
<path d="M142.336 194.019C139.91 210.111 136.536 226.046 132.233 241.741C132.086 242.241 132.886 242.685 133.155 242.125C136.268 235.661 143.446 201.665 143.53 194.215C143.553 194.058 143.513 193.899 143.419 193.771C143.326 193.643 143.186 193.557 143.029 193.531C142.873 193.506 142.713 193.542 142.583 193.634C142.454 193.725 142.365 193.863 142.336 194.019Z" fill="black"/>
<path d="M200.154 216.717C200.035 216.217 199.116 216.355 199.116 216.915C199.303 221.386 203.95 235.36 208.153 240.931C209.19 242.352 210.486 242.373 209.335 240.33C205.17 232.934 202.079 224.984 200.154 216.717Z" fill="black"/>
<path d="M205.289 134.085C201.385 125.216 199.864 127.674 200.361 128.401C205.402 135.736 209.699 150.187 211.659 158.912C211.886 159.95 213.494 159.502 213.266 158.455C211.414 150.089 208.742 141.927 205.289 134.085Z" fill="black"/>
<path d="M183 115.526C181.94 115.213 180.858 114.981 179.764 114.831C178.788 114.685 178.581 114.831 178.528 115.65C178.379 121.615 177.912 127.568 177.129 133.484C170.789 129.147 161.494 120.671 157.148 113.859C156.245 112.449 155.871 112.292 155.353 112.314C150.756 112.49 151.545 114.189 152.24 114.046C153.288 113.822 154.354 113.697 155.425 113.671C159.813 120.819 169.71 130.332 176.62 135.171C177.503 135.796 178.041 135.751 178.269 134.496C179.408 128.469 179.902 122.338 179.743 116.206C180.765 116.339 181.777 116.54 182.773 116.807C182.934 116.82 183.095 116.772 183.224 116.673C183.352 116.573 183.439 116.43 183.467 116.27C183.496 116.11 183.464 115.945 183.377 115.808C183.291 115.67 183.156 115.57 183 115.526Z" fill="black"/>
<path d="M196.814 123.286C194.891 119.001 193.471 118.514 191.409 117.559C189.346 116.604 183.659 114.156 184.924 115.795C194.064 127.519 197.715 143.806 199.075 160.92C199.969 160.943 200.862 160.846 201.73 160.63C202.519 154.741 203.105 137.314 196.814 123.286Z" fill="black"/>
<path d="M132.045 169.743C133.805 171.645 135.92 173.185 138.27 174.276C138.592 172.305 138.996 161.826 139.194 157.263C137.036 161.548 134.65 165.714 132.045 169.743Z" fill="black"/>
<path d="M140.635 192.4C137.524 191.509 125.696 189.6 121.961 186.673C122.086 192.181 121.308 198.739 123.528 201.094C125.748 203.449 137.44 202.401 139.194 202.344C139.453 200.375 140.5 193.728 140.635 192.4Z" fill="black"/>
<path d="M143.924 112.875C141.093 113.453 138.924 114 139.225 116.081C142.336 137.733 141.373 158.544 140.003 175.423C140.825 175.912 141.722 176.262 142.659 176.46C150.378 162.299 151.695 133.811 149.64 112.835C149.34 109.758 146.75 112.306 143.924 112.875Z" fill="black"/>
<path d="M136.434 114.655C136.765 111.542 142.99 111.335 146.466 108.905C142.14 108.77 123.725 107.805 121.567 110.876C119.41 113.947 120.192 128.947 120.192 132.751C122.812 127.321 130.936 117.125 136.434 114.655Z" fill="black"/>
<path d="M223.65 159.514C222.775 160.056 194.458 162.355 188.265 164.866C187.351 165.23 156.716 156.116 156.623 156.805C156.529 157.494 155.346 175.77 155.098 181.371C160.741 180.496 161.415 175.635 164.881 178.135C171.561 182.95 165.565 194.444 164.093 197.08C162.62 199.716 156.321 199.071 153.283 197.983C153.283 198.874 150.233 210.275 151.408 210.858C152.583 211.44 179.419 217.549 180.456 216.958C181.494 216.366 202.864 211.356 210.024 211.843C211.175 211.925 225.377 192.878 225.969 191.654C226.56 190.43 228.428 185.605 229.559 182.318C229.28 182.505 228.963 182.629 228.631 182.682C228.298 182.734 227.959 182.713 227.636 182.62C227.312 182.527 227.013 182.364 226.76 182.144C226.506 181.923 226.303 181.65 226.166 181.343C225.388 179.968 228.085 169.08 228.821 167.718C230.321 164.928 231.934 166.008 234.911 163.843C236.219 160.555 243.947 141.83 243.75 141.145C243.552 140.46 224.536 158.968 223.65 159.514ZM180.826 213.958C180.722 214.583 179.675 214.394 179.789 213.803C182.164 197.303 184.675 178.79 187.465 169.524C187.493 169.427 187.557 169.346 187.645 169.297C187.733 169.248 187.836 169.236 187.932 169.264C188.029 169.291 188.111 169.356 188.159 169.444C188.208 169.531 188.22 169.635 188.193 169.731C185.961 183.51 183.539 197.604 180.826 213.958ZM223.538 162.574C221.079 175.8 216.347 188.759 211.596 206.53C211.441 207.111 210.471 206.759 210.621 206.209C214.621 190.959 218.277 177.44 222.496 162.366C222.524 162.229 222.605 162.108 222.722 162.03C222.838 161.952 222.981 161.924 223.119 161.951C223.256 161.979 223.377 162.06 223.455 162.177C223.533 162.293 223.561 162.436 223.534 162.574H223.538Z" fill="#38A1FF"/>
<path d="M33.375 67.8862C32.8975 67.8937 31.9112 67.9488 32.125 68.6438C33.8475 74.485 35.8087 80.2525 37.655 86.0413C36.2437 88.4075 31.53 99.2375 31.3475 99.7562C30.8912 101.006 31.5237 101.006 32.385 101.042C40.0625 101.406 47.1275 101.904 54.8138 102.029C54.98 106.279 54.6275 110.744 54.9288 112.122C55.1462 113.087 56.495 112.798 56.7025 112.009C57.0871 108.707 57.2604 105.384 57.2213 102.06C59.8975 102.06 78.8212 102.495 79.8687 101.842C80.9163 101.19 95.465 87.39 94.8425 86.0837C92.3425 80.7512 86.0138 71.8337 82.3938 66.9112C81.7613 66.06 38.5 67.8137 33.375 67.8862ZM79.0837 100.463C65.1925 100.588 48.0962 100.462 33.095 99.7775C34.2462 97.1937 38.4787 88.2612 39.0387 85.73C39.215 84.9212 34.3187 70.6363 33.9037 69.3388C36.3625 69.3388 78.7725 68.685 81.3775 68.2288C85.8275 74.4538 89.8525 81.2587 93.4937 86.27L79.0837 100.463Z" fill="#38A1FF"/>
<path d="M57.1425 16.305C57.1425 18.38 56.3637 29.595 57.3087 31.0775C57.3899 31.1989 57.5009 31.2973 57.6311 31.3634C57.7613 31.4294 57.9063 31.4609 58.0522 31.4548C58.1981 31.4486 58.3399 31.405 58.4641 31.3282C58.5883 31.2514 58.6906 31.144 58.7612 31.0162C59.6225 29.7812 59.5387 18.7425 59.6012 16.4912C63.8137 15.5162 64.2588 7.19625 58.7813 7.6325C53.76 8.0675 52.64 14.7275 57.1425 16.305Z" fill="#38A1FF"/>
<path d="M74.9137 78.7688C72.4762 78.8338 48.615 79.2688 46.0837 79.8063C45.8713 79.856 45.683 79.9784 45.5513 80.1523C45.4197 80.3262 45.3529 80.5407 45.3627 80.7586C45.3725 80.9766 45.4582 81.1842 45.6049 81.3456C45.7517 81.507 45.9502 81.6121 46.1662 81.6425C49.8175 82.255 69.6125 81.29 74.7162 81.1138C76.2212 81.0725 76.4387 78.7288 74.9137 78.7688Z" fill="#38A1FF"/>
<path d="M73.6788 89.125C71.8425 88.575 50.15 88.8238 47.7438 89.125C47.5403 89.1961 47.3641 89.3286 47.2393 89.5043C47.1146 89.68 47.0476 89.8902 47.0476 90.1056C47.0476 90.3211 47.1146 90.5312 47.2393 90.7069C47.3641 90.8826 47.5403 91.0152 47.7438 91.0863C48.895 91.2413 71.345 91.8225 73.6788 91.0863C73.8594 90.994 74.011 90.8535 74.1169 90.6805C74.2228 90.5074 74.2789 90.3085 74.2789 90.1056C74.2789 89.9028 74.2228 89.7038 74.1169 89.5308C74.011 89.3578 73.8594 89.2173 73.6788 89.125Z" fill="#38A1FF"/>
<path d="M101.193 114.426C74.2338 112.811 47.0275 113.784 20.0125 112.684C20.0125 112.684 9.42 119.469 8.32 120.143C6.07 121.553 5.43375 121.618 7.52625 123.518C8.60625 124.496 17.6787 132.406 20.1262 134.254C20.4175 134.473 50.9275 133.559 54.31 133.528C54.31 136.869 53.905 140.593 54.1125 141.826C54.2587 142.74 56.5925 142.938 56.5925 141.538C56.7785 138.875 56.8203 136.204 56.7175 133.538C60.5763 133.538 99.1588 133.765 100.206 133.538C100.985 133.391 100.995 132.728 100.694 132.22C99.7913 130.664 94.8638 125.621 93.225 123.993C95.9212 121.285 98.4113 118.401 101.316 115.859C101.866 115.391 102.075 114.479 101.193 114.426ZM84.1162 128.141C74.5612 128.516 37.0575 129.179 28.0937 127.456C27.44 127.321 27.3262 126.206 28.0937 126.206C44.5375 126.114 66.3438 126.768 83.8663 126.103C85.0913 126.056 85.4337 128.09 84.1162 128.141ZM85.61 122C66.4062 122.149 45.15 123.25 26.165 122.104C25.345 122.104 25.4687 120.729 26.2375 120.714C44.6925 120.339 66.375 119.884 85.4438 119.853C86.8238 119.853 87 121.989 85.61 122Z" fill="#38A1FF"/>
<path d="M70.375 151.298C63 150.879 36.1388 149.066 34.065 150.581C33.992 150.64 33.9331 150.714 33.8926 150.798C33.8521 150.883 33.8311 150.975 33.8311 151.069C33.8311 151.162 33.8521 151.255 33.8926 151.339C33.9331 151.423 33.992 151.498 34.065 151.556C34.345 151.733 65.24 154.181 70.2087 152.931C70.875 152.77 71.085 151.338 70.375 151.298Z" fill="#38A1FF"/>
<path d="M27.75 66.86C37.7287 62.9562 46.56 59.125 56.5612 55.25C56.4675 57.4087 55.9362 63.1562 56.6237 65.1787C56.8625 65.905 57.8737 65.7188 58.1387 65.1787C58.6263 64.0537 59.5387 55.51 58.8537 54.41C61.375 53.435 81.9375 46.215 82.31 45.4262C83.8362 45.7687 90.4237 32.9762 90.9212 31.7425C91.0775 31.3375 91.2637 30.8287 90.6712 30.57C86.3762 28.7237 82.0712 26.9175 77.765 25.0925C77.7037 25.0925 29.9813 46.525 26.1013 48.0925C25.8725 48.185 26.215 52.7913 26.485 57.6475C26.75 62.25 26.91 67.1888 27.75 66.86ZM33.2175 54.0575C42.1087 48.9325 63.4487 40.3937 74.01 36.1825C77.91 34.6262 78.585 36.4325 77.3925 37.22C72.3812 40.405 40.9675 52.9062 33.9025 55.6337C33.6935 55.7246 33.4569 55.7287 33.2449 55.6451C33.0329 55.5615 32.8627 55.3972 32.7719 55.1881C32.681 54.9791 32.677 54.7426 32.7605 54.5305C32.8441 54.3185 33.0085 54.1483 33.2175 54.0575Z" fill="#38A1FF"/>
<path d="M75.3288 144.471C73.5975 144.809 31.8288 143.194 26.9838 143.05C26.59 143.05 26.5375 143.401 26.2988 143.589C25.4388 144.214 26.3925 156.12 26.455 157.449C26.4458 157.651 26.5152 157.849 26.6487 158.002C26.7821 158.155 26.9693 158.25 27.1713 158.267C31.735 159.025 75.0388 160.197 76.0138 159.761C77.3 159.191 84.6962 152.821 84.6237 151.732C84.5512 150.644 76.375 144.266 75.3288 144.471ZM75.7538 158.807C74.8313 158.807 29.9713 157.315 27.8975 156.732C27.4953 152.693 27.3284 148.633 27.3975 144.574C40.4487 144.802 61.7262 145.449 75.12 145.912C75.8975 146.13 82.1638 151.182 83.17 151.805L75.7538 158.807Z" fill="#38A1FF"/>
<path d="M53.5 162.989C52.4162 183.164 52.545 218.875 52.0887 240.962C52.0887 242.29 54.2262 242.384 54.4437 241.056C55.17 236.564 56.1937 171.056 55.7925 163.082C55.7212 161.806 53.57 161.691 53.5 162.989Z" fill="#38A1FF"/>
</svg>
