<svg width="16" height="16" viewBox="0 0 16 16" fill="none" xmlns="http://www.w3.org/2000/svg">
<g clip-path="url(#clip0_3_152)">
<path d="M5.71426 7.42857C7.29221 7.42857 8.5714 6.14938 8.5714 4.57143C8.5714 2.99348 7.29221 1.71429 5.71426 1.71429C4.13631 1.71429 2.85712 2.99348 2.85712 4.57143C2.85712 6.14938 4.13631 7.42857 5.71426 7.42857Z" stroke="#C9CACC" stroke-width="1.71429" stroke-linecap="round" stroke-linejoin="round"/>
<path d="M0.571411 15.4286H10.8571V14.809C10.848 13.9379 10.6183 13.0833 10.1894 12.3251C9.76047 11.5669 9.14638 10.9297 8.40447 10.4732C7.66255 10.0166 6.81702 9.75552 5.94686 9.71432C5.86929 9.71065 5.79173 9.70873 5.71427 9.70857C5.63681 9.70873 5.55925 9.71065 5.48167 9.71432C4.61151 9.75552 3.76598 10.0166 3.02406 10.4732C2.28215 10.9297 1.66806 11.5669 1.23915 12.3251C0.810242 13.0833 0.580509 13.9379 0.571411 14.809V15.4286Z" stroke="#C9CACC" stroke-width="1.71429" stroke-linecap="round" stroke-linejoin="round"/>
<path d="M10.2857 7.42857C11.8636 7.42857 13.1428 6.14938 13.1428 4.57143C13.1428 2.99348 11.8636 1.71429 10.2857 1.71429" stroke="#C9CACC" stroke-width="1.71429" stroke-linecap="round" stroke-linejoin="round"/>
<path d="M13.1428 15.4287H15.4285V14.809C15.4194 13.9379 15.1897 13.0833 14.7608 12.3251C14.3318 11.5669 13.7178 10.9297 12.9758 10.4732C12.4963 10.178 11.9733 9.9646 11.4285 9.83943" stroke="#C9CACC" stroke-width="1.71429" stroke-linecap="round" stroke-linejoin="round"/>
</g>
<defs>
<clipPath id="clip0_3_152">
<rect width="16" height="16" fill="white"/>
</clipPath>
</defs>
</svg>
